<svg width="123" height="17" viewBox="0 0 123 17" fill="none" xmlns="http://www.w3.org/2000/svg">
<g clip-path="url(#clip0_207_29)">
<path d="M113.772 0.298584V0.781016C113.094 0.781016 112.657 0.849936 112.461 0.987774C112.281 1.1103 112.296 1.33237 112.506 1.65399L121.452 14.9554C121.753 15.3842 121.994 15.6751 122.175 15.8284C122.356 15.9815 122.596 16.0734 122.898 16.104V16.5865C122.596 16.5711 122.159 16.5558 121.588 16.5405C121.015 16.5099 120.42 16.4946 119.803 16.4946C119.126 16.4946 118.432 16.5099 117.725 16.5405C117.031 16.5558 116.512 16.5711 116.166 16.5865V16.104C116.859 16.104 117.303 16.0581 117.499 15.9662C117.709 15.8589 117.709 15.6446 117.499 15.323L108.531 1.92966C108.244 1.48552 108.011 1.18687 107.83 1.03372C107.65 0.880566 107.401 0.796332 107.085 0.781016V0.298584C107.401 0.3139 107.86 0.336873 108.463 0.367504C109.08 0.382819 109.698 0.390476 110.315 0.390476C110.993 0.390476 111.64 0.382819 112.258 0.367504C112.89 0.336873 113.395 0.3139 113.772 0.298584ZM113.975 8.40804C113.975 8.40804 113.99 8.46165 114.02 8.56885C114.05 8.66075 114.08 8.7603 114.111 8.8675C114.14 8.95939 114.156 9.00534 114.156 9.00534L111.897 12.1527C111.294 12.9797 110.955 13.6842 110.88 14.2662C110.805 14.8328 110.933 15.277 111.264 15.5986C111.61 15.9049 112.115 16.0811 112.778 16.127V16.5865C112.567 16.5711 112.296 16.5635 111.964 16.5635C111.648 16.5481 111.309 16.5405 110.948 16.5405C110.601 16.5251 110.27 16.5175 109.954 16.5175C109.653 16.5175 109.404 16.5175 109.208 16.5175C108.787 16.5175 108.395 16.5251 108.034 16.5405C107.672 16.5405 107.371 16.5558 107.13 16.5865V16.127C107.657 15.9432 108.192 15.6216 108.734 15.1621C109.276 14.6873 109.833 14.0747 110.406 13.3243L113.975 8.40804ZM121.881 0.321558V0.781016C121.384 0.918854 120.888 1.20984 120.391 1.65399C119.908 2.09814 119.456 2.61119 119.035 3.19318L115.376 8.15534C115.376 8.15534 115.345 8.05579 115.285 7.85669C115.24 7.6576 115.218 7.55804 115.218 7.55804L117.544 4.3648C118.116 3.62966 118.455 3.00173 118.561 2.48102C118.681 1.9603 118.598 1.55445 118.312 1.26345C118.025 0.972458 117.574 0.811647 116.957 0.781016V0.321558C117.243 0.336873 117.559 0.352188 117.906 0.367504C118.251 0.367504 118.59 0.375161 118.922 0.390476C119.268 0.390476 119.561 0.390476 119.803 0.390476C120.239 0.390476 120.639 0.382819 121 0.367504C121.362 0.352188 121.656 0.336873 121.881 0.321558Z" fill="black"/>
<path d="M106.273 0.321594V0.781054C105.791 0.796369 105.422 0.857631 105.166 0.964839C104.925 1.05673 104.767 1.24051 104.692 1.51619C104.617 1.77655 104.579 2.19007 104.579 2.75673V14.1513C104.579 14.7027 104.617 15.1162 104.692 15.3919C104.782 15.6676 104.948 15.8513 105.189 15.9432C105.43 16.0351 105.791 16.0964 106.273 16.127V16.5865C105.867 16.5558 105.354 16.5405 104.737 16.5405C104.12 16.5251 103.495 16.5176 102.862 16.5176C102.124 16.5176 101.439 16.5251 100.806 16.5405C100.189 16.5405 99.6844 16.5558 99.293 16.5865V16.127C99.7748 16.0964 100.136 16.0351 100.377 15.9432C100.618 15.8513 100.776 15.6676 100.852 15.3919C100.942 15.1162 100.987 14.7027 100.987 14.1513V2.75673C100.987 2.19007 100.942 1.77655 100.852 1.51619C100.776 1.24051 100.611 1.05673 100.355 0.964839C100.114 0.857631 99.7598 0.796369 99.293 0.781054V0.321594C99.6844 0.33691 100.189 0.352225 100.806 0.36754C101.439 0.382855 102.124 0.390513 102.862 0.390513C103.495 0.390513 104.12 0.382855 104.737 0.36754C105.354 0.352225 105.867 0.33691 106.273 0.321594Z" fill="black"/>
<path d="M97.8766 0.321594V0.781054C97.3947 0.842316 97.0332 0.972497 96.7923 1.17159C96.5513 1.35538 96.3857 1.65403 96.2953 2.06754C96.22 2.48105 96.1824 3.06304 96.1824 3.81349V16.6324C96.0017 16.617 95.8134 16.6095 95.6177 16.6095C95.4369 16.6095 95.2412 16.617 95.0303 16.6324L85.2265 3.99727V12.8189C85.2265 13.6612 85.2716 14.3122 85.362 14.7716C85.4524 15.2157 85.6481 15.5373 85.9493 15.7365C86.2656 15.9203 86.755 16.0504 87.4177 16.127V16.5865C87.1314 16.5558 86.755 16.5405 86.2882 16.5405C85.8213 16.5251 85.3846 16.5176 84.978 16.5176C84.6316 16.5176 84.2777 16.5251 83.9163 16.5405C83.5548 16.5405 83.2536 16.5558 83.0127 16.5865V16.127C83.4945 16.0504 83.856 15.9203 84.097 15.7365C84.3379 15.5527 84.496 15.254 84.5714 14.8405C84.6617 14.4116 84.7069 13.8297 84.7069 13.0946V2.75673C84.7069 2.19007 84.6617 1.77655 84.5714 1.51619C84.496 1.24051 84.3305 1.05673 84.0744 0.964839C83.8335 0.857631 83.4795 0.796369 83.0127 0.781054V0.321594C83.2536 0.33691 83.5548 0.352225 83.9163 0.36754C84.2777 0.382855 84.6316 0.390513 84.978 0.390513C85.3394 0.390513 85.6857 0.382855 86.0171 0.36754C86.3484 0.352225 86.6496 0.33691 86.9207 0.321594L95.6628 11.2797V4.08916C95.6628 3.24682 95.6177 2.60358 95.5273 2.15943C95.4369 1.69997 95.2336 1.37069 94.9174 1.17159C94.6162 0.972497 94.1342 0.842316 93.4716 0.781054V0.321594C93.7577 0.33691 94.1343 0.352225 94.6011 0.36754C95.0679 0.382855 95.5047 0.390513 95.9113 0.390513C96.2728 0.390513 96.6266 0.382855 96.973 0.36754C97.3345 0.352225 97.6356 0.33691 97.8766 0.321594Z" fill="black"/>
<path d="M73.4537 0C75.0501 0 76.4431 0.32928 77.6328 0.987839C78.8376 1.64639 79.7713 2.59595 80.4339 3.83649C81.0966 5.06172 81.4278 6.55496 81.4278 8.31622C81.4278 10.0315 81.089 11.5324 80.4113 12.8189C79.7336 14.1054 78.7849 15.1085 77.565 15.8284C76.3603 16.5482 74.9824 16.9081 73.4311 16.9081C71.8348 16.9081 70.4343 16.5788 69.2295 15.9203C68.0398 15.2618 67.1136 14.3122 66.451 13.0716C65.7884 11.8311 65.457 10.3378 65.457 8.59189C65.457 6.87658 65.7959 5.37568 66.4736 4.08919C67.1664 2.8027 68.1076 1.79955 69.2973 1.07973C70.5021 0.359911 71.8876 0 73.4537 0ZM73.3634 0.413514C72.5201 0.413514 71.7821 0.758108 71.1496 1.4473C70.5322 2.13649 70.0503 3.08604 69.7039 4.29595C69.3726 5.50585 69.2069 6.9072 69.2069 8.5C69.2069 10.1234 69.3952 11.5401 69.7716 12.75C70.1632 13.9446 70.6828 14.8712 71.3303 15.5297C71.993 16.173 72.7234 16.4946 73.5215 16.4946C74.3649 16.4946 75.0953 16.15 75.7127 15.4608C76.3452 14.7716 76.8271 13.822 77.1584 12.6122C77.5048 11.3869 77.678 9.98558 77.678 8.40811C77.678 6.76937 77.4822 5.3527 77.0906 4.15811C76.7142 2.96351 76.1946 2.04459 75.532 1.40135C74.8844 0.742793 74.1616 0.413514 73.3634 0.413514Z" fill="black"/>
<path d="M63.8987 0.321594C63.8385 1.10268 63.7932 1.85312 63.7631 2.57295C63.7481 3.29277 63.7406 3.84412 63.7406 4.227C63.7406 4.56393 63.7481 4.88555 63.7631 5.19186C63.7782 5.49817 63.7932 5.75853 63.8083 5.97295H63.2888C63.0477 4.68646 62.739 3.66799 62.3626 2.91754C62.0012 2.16709 61.5644 1.63872 61.0524 1.33241C60.5403 1.01078 59.9379 0.849971 59.2452 0.849971H58.7257V13.9676C58.7257 14.5801 58.7859 15.0396 58.9064 15.3459C59.0419 15.6522 59.2828 15.8589 59.6293 15.9662C59.9756 16.0581 60.4801 16.1116 61.1428 16.127V16.5865C60.6758 16.5711 60.0509 16.5558 59.2678 16.5405C58.4998 16.5251 57.694 16.5176 56.8507 16.5176C56.0224 16.5176 55.2393 16.5251 54.5014 16.5405C53.7634 16.5558 53.1687 16.5711 52.7169 16.5865V16.127C53.3945 16.1116 53.9065 16.0581 54.2529 15.9662C54.5992 15.8589 54.8327 15.6522 54.9532 15.3459C55.0736 15.0396 55.1339 14.5801 55.1339 13.9676V0.849971H54.637C53.9443 0.849971 53.3418 1.01078 52.8298 1.33241C52.3178 1.63872 51.881 2.16709 51.5196 2.91754C51.1582 3.65268 50.8419 4.67115 50.5709 5.97295H50.0513C50.0813 5.75853 50.0965 5.49817 50.0965 5.19186C50.1115 4.88555 50.1191 4.56393 50.1191 4.227C50.1191 3.84412 50.1039 3.29277 50.0739 2.57295C50.0588 1.85312 50.0211 1.10268 49.9609 0.321594C50.6536 0.33691 51.4067 0.352225 52.2199 0.36754C53.0481 0.382855 53.8764 0.390513 54.7047 0.390513C55.533 0.390513 56.2784 0.390513 56.9411 0.390513C57.6188 0.390513 58.3642 0.390513 59.1775 0.390513C60.0057 0.390513 60.8341 0.382855 61.6623 0.36754C62.4906 0.352225 63.236 0.33691 63.8987 0.321594Z" fill="black"/>
<path d="M23.9393 16.5865V16.127C24.4212 16.0964 24.7827 16.0351 25.0236 15.9432C25.2646 15.8513 25.4227 15.6676 25.498 15.3919C25.5883 15.1162 25.6335 14.7027 25.6335 14.1513V2.75673C25.6335 2.19007 25.5883 1.77655 25.498 1.51619C25.4227 1.24051 25.2571 1.05673 25.001 0.964839C24.7601 0.857631 24.4062 0.796369 23.9393 0.781054V0.321594C24.3459 0.33691 24.873 0.352225 25.5206 0.36754C26.1832 0.382855 26.8383 0.390513 27.4858 0.390513C28.1787 0.390513 28.8262 0.382855 29.4285 0.36754C30.046 0.352225 30.543 0.33691 30.9195 0.321594V0.781054C30.4376 0.796369 30.0686 0.857631 29.8126 0.964839C29.5716 1.05673 29.4135 1.24051 29.3382 1.51619C29.263 1.77655 29.2252 2.19007 29.2252 2.75673V14.1513C29.2252 14.7027 29.263 15.1162 29.3382 15.3919C29.4285 15.6676 29.5942 15.8513 29.8352 15.9432C30.0762 16.0351 30.4376 16.0964 30.9195 16.127V16.5865C30.543 16.5558 30.046 16.5405 29.4285 16.5405C28.8262 16.5251 28.1787 16.5176 27.4858 16.5176C26.8383 16.5176 26.1832 16.5251 25.5206 16.5405C24.873 16.5405 24.3459 16.5558 23.9393 16.5865ZM14.3613 16.5865V16.127C14.8433 16.0964 15.2047 16.0351 15.4456 15.9432C15.6867 15.8513 15.8448 15.6676 15.92 15.3919C16.0104 15.1162 16.0555 14.7027 16.0555 14.1513V2.75673C16.0555 2.19007 16.0104 1.77655 15.92 1.51619C15.8448 1.24051 15.6791 1.05673 15.423 0.964839C15.1821 0.857631 14.8283 0.796369 14.3613 0.781054V0.321594C14.7529 0.33691 15.2575 0.352225 15.8748 0.36754C16.5073 0.382855 17.1926 0.390513 17.9305 0.390513C18.563 0.390513 19.188 0.382855 19.8054 0.36754C20.4229 0.352225 20.9349 0.33691 21.3415 0.321594V0.781054C20.8597 0.796369 20.4907 0.857631 20.2346 0.964839C19.9937 1.05673 19.8356 1.24051 19.7602 1.51619C19.685 1.77655 19.6473 2.19007 19.6473 2.75673V14.1513C19.6473 14.7027 19.685 15.1162 19.7602 15.3919C19.8506 15.6676 20.0163 15.8513 20.2572 15.9432C20.4982 16.0351 20.8597 16.0964 21.3415 16.127V16.5865C20.9349 16.5558 20.4229 16.5405 19.8054 16.5405C19.188 16.5251 18.563 16.5176 17.9305 16.5176C17.1926 16.5176 16.5073 16.5251 15.8748 16.5405C15.2575 16.5405 14.7529 16.5558 14.3613 16.5865ZM18.179 8.63781V8.17835H27.1018V8.63781H18.179Z" fill="black"/>
<path d="M0 0.321594C0.376492 0.33691 0.880991 0.352225 1.5135 0.36754C2.16106 0.382855 2.8011 0.390513 3.43361 0.390513C4.15647 0.390513 4.85675 0.382855 5.53444 0.36754C6.21212 0.352225 6.69404 0.344568 6.98017 0.344568C9.07346 0.344568 10.6397 0.765739 11.6788 1.60808C12.7179 2.45042 13.2375 3.53781 13.2375 4.87024C13.2375 5.42159 13.1321 6.00358 12.9212 6.61619C12.7103 7.21349 12.3489 7.7725 11.8369 8.29322C11.3399 8.79862 10.6547 9.21214 9.78127 9.53376C8.90781 9.85538 7.80844 10.0162 6.4832 10.0162H4.17906V9.55673H6.2573C7.14583 9.55673 7.81598 9.34997 8.26777 8.93646C8.73462 8.52295 9.05087 7.97926 9.21653 7.30538C9.39725 6.6315 9.4876 5.90403 9.4876 5.12295C9.4876 3.66799 9.27676 2.58061 8.8551 1.86078C8.43343 1.14096 7.71056 0.781054 6.6865 0.781054C6.09917 0.781054 5.71515 0.911235 5.53444 1.17159C5.36878 1.43196 5.28595 1.96034 5.28595 2.75673V14.0135C5.28595 14.6108 5.34619 15.0549 5.46667 15.3459C5.58715 15.6369 5.82057 15.8284 6.16694 15.9203C6.51332 16.0122 7.02534 16.0657 7.70303 16.0811V16.5865C7.23618 16.5711 6.63379 16.5558 5.89587 16.5405C5.15795 16.5251 4.38237 16.5176 3.56915 16.5176C2.92158 16.5176 2.28908 16.5251 1.67163 16.5405C1.05418 16.5558 0.49697 16.5711 0 16.5865V16.127C0.48191 16.0964 0.843342 16.0351 1.0843 15.9432C1.32525 15.8513 1.48338 15.6676 1.55868 15.3919C1.64904 15.1162 1.69421 14.7027 1.69421 14.1513V2.75673C1.69421 2.19007 1.64904 1.77655 1.55868 1.51619C1.48338 1.24051 1.31773 1.05673 1.06171 0.964839C0.820752 0.857631 0.46685 0.796369 0 0.781054V0.321594Z" fill="black"/>
<mask id="mask0_207_29" style="mask-type:luminance" maskUnits="userSpaceOnUse" x="32" y="0" width="17" height="17">
<path d="M48.6225 0.160828H32.2451V16.8162H48.6225V0.160828Z" fill="white"/>
</mask>
<g mask="url(#mask0_207_29)">
<path d="M33.0332 11.6948C34.4888 14.8525 37.5503 16.1279 38.8991 16.3709L41.6598 11.6948H33.0332Z" fill="black"/>
<path d="M33.8336 3.72345C31.7647 6.66616 32.1514 9.6998 32.6034 10.8488H38.1129L33.8336 3.72345Z" fill="black"/>
<path d="M39.6895 16.7441C42.7144 17.2234 45.3288 15.1964 46.258 14.1229L43.6661 9.24561L39.6895 16.7441Z" fill="black"/>
<path d="M47.8344 4.92588C46.4816 1.70918 43.5708 0.408889 42.2845 0.160828L39.6895 4.92588H47.8344Z" fill="black"/>
<path d="M47.0033 13.2537C49.1588 10.2674 48.7069 6.96224 48.2115 5.68298H42.7549L47.0033 13.2537Z" fill="black"/>
<path d="M37.2038 7.73147L41.1778 0.202758C37.7202 -0.155232 35.3582 1.86707 34.6094 2.92297L37.2038 7.73147Z" fill="black"/>
</g>
</g>
<defs>
<clipPath id="clip0_207_29">
<rect width="123" height="17" fill="white"/>
</clipPath>
</defs>
</svg>
