<svg width="256" height="256" viewBox="0 0 256 256" fill="none" xmlns="http://www.w3.org/2000/svg">
<rect width="256" height="256" fill="#050505"/>
<g clip-path="url(#clip0_133_19)">
<path d="M55.7002 158.802C69.9203 189.136 99.8307 201.388 113.008 203.722L139.978 158.802H55.7002Z" fill="#C8E600"/>
<path d="M63.5186 82.2246C43.3066 110.494 47.0847 139.636 51.5002 150.674H105.326L63.5186 82.2246Z" fill="#C8E600"/>
<path d="M120.728 207.307C150.28 211.912 175.821 192.439 184.899 182.126L159.577 135.273L120.728 207.307Z" fill="#C8E600"/>
<path d="M200.3 93.7754C187.083 62.8743 158.646 50.383 146.08 48L120.728 93.7754H200.3Z" fill="#C8E600"/>
<path d="M192.179 173.776C213.237 145.088 208.822 113.338 203.982 101.048H150.674L192.179 173.776Z" fill="#C8E600"/>
<path d="M96.4474 120.727L135.273 48.4028C101.493 44.9638 78.4173 64.391 71.1016 74.5345L96.4474 120.727Z" fill="#C8E600"/>
</g>
<defs>
<clipPath id="clip0_133_19">
<rect width="160" height="160" fill="white" transform="translate(48 48)"/>
</clipPath>
</defs>
</svg>
