<svg width="32" height="32" viewBox="0 0 32 32" fill="none" xmlns="http://www.w3.org/2000/svg">
<rect width="32" height="32" fill="#050505"/>
<g clip-path="url(#clip0_133_26)">
<path d="M7.86621 19.4653C9.46597 22.8779 12.8309 24.2562 14.3133 24.5188L17.3475 19.4653H7.86621Z" fill="#C8E600"/>
<path d="M8.74584 10.8501C6.47199 14.0304 6.89703 17.3089 7.39378 18.5506H13.4492L8.74584 10.8501Z" fill="#C8E600"/>
<path d="M15.1816 24.9222C18.5063 25.4403 21.3797 23.2495 22.4009 22.0894L19.5522 16.8184L15.1816 24.9222Z" fill="#C8E600"/>
<path d="M24.1335 12.1497C22.6466 8.67335 19.4475 7.26809 18.0338 7L15.1816 12.1497H24.1335Z" fill="#C8E600"/>
<path d="M23.2201 21.1496C25.5891 17.9222 25.0924 14.3503 24.548 12.9678H18.5508L23.2201 21.1496Z" fill="#C8E600"/>
<path d="M12.45 15.1818L16.8179 7.04532C13.0177 6.65842 10.4217 8.84399 9.59863 9.98514L12.45 15.1818Z" fill="#C8E600"/>
</g>
<defs>
<clipPath id="clip0_133_26">
<rect width="18" height="18" fill="white" transform="translate(7 7)"/>
</clipPath>
</defs>
</svg>
