<svg width="123" height="18" viewBox="0 0 123 18" fill="none" xmlns="http://www.w3.org/2000/svg">
<g clip-path="url(#clip0_176_67)">
<path d="M113.772 0.798828V1.28126C113.094 1.28126 112.657 1.35018 112.461 1.48802C112.281 1.61054 112.296 1.83261 112.506 2.15423L121.452 15.4556C121.753 15.8844 121.994 16.1754 122.175 16.3286C122.356 16.4817 122.596 16.5736 122.898 16.6043V17.0867C122.596 17.0713 122.159 17.056 121.588 17.0408C121.015 17.0101 120.42 16.9948 119.803 16.9948C119.126 16.9948 118.432 17.0101 117.725 17.0408C117.031 17.056 116.512 17.0713 116.166 17.0867V16.6043C116.859 16.6043 117.303 16.5583 117.499 16.4664C117.709 16.3592 117.709 16.1448 117.499 15.8232L108.531 2.42991C108.244 1.98576 108.011 1.68711 107.83 1.53396C107.65 1.38081 107.401 1.29658 107.085 1.28126V0.798828C107.401 0.814144 107.86 0.837117 108.463 0.867748C109.08 0.883063 109.698 0.89072 110.315 0.89072C110.993 0.89072 111.64 0.883063 112.258 0.867748C112.89 0.837117 113.395 0.814144 113.772 0.798828ZM113.975 8.90829C113.975 8.90829 113.99 8.96189 114.02 9.0691C114.05 9.16099 114.08 9.26054 114.111 9.36775C114.14 9.45964 114.156 9.50558 114.156 9.50558L111.897 12.6529C111.294 13.48 110.955 14.1844 110.88 14.7664C110.805 15.3331 110.933 15.7773 111.264 16.0989C111.61 16.4051 112.115 16.5813 112.778 16.6273V17.0867C112.567 17.0713 112.296 17.0637 111.964 17.0637C111.648 17.0483 111.309 17.0408 110.948 17.0408C110.601 17.0254 110.27 17.0178 109.954 17.0178C109.653 17.0178 109.404 17.0178 109.208 17.0178C108.787 17.0178 108.395 17.0254 108.034 17.0408C107.672 17.0408 107.371 17.056 107.13 17.0867V16.6273C107.657 16.4435 108.192 16.1218 108.734 15.6624C109.276 15.1875 109.833 14.575 110.406 13.8245L113.975 8.90829ZM121.881 0.821802V1.28126C121.384 1.4191 120.888 1.71008 120.391 2.15423C119.908 2.59838 119.456 3.11144 119.035 3.69342L115.376 8.65558C115.376 8.65558 115.345 8.55603 115.285 8.35693C115.24 8.15784 115.218 8.05829 115.218 8.05829L117.544 4.86504C118.116 4.12991 118.455 3.50198 118.561 2.98126C118.681 2.46054 118.598 2.05469 118.312 1.76369C118.025 1.4727 117.574 1.31189 116.957 1.28126V0.821802C117.243 0.837117 117.559 0.852432 117.906 0.867748C118.251 0.867748 118.59 0.875405 118.922 0.89072C119.268 0.89072 119.561 0.89072 119.803 0.89072C120.239 0.89072 120.639 0.883063 121 0.867748C121.362 0.852432 121.656 0.837117 121.881 0.821802Z" fill="white"/>
<path d="M106.273 0.821289V1.28075C105.791 1.29606 105.422 1.35733 105.166 1.46453C104.925 1.55642 104.767 1.74021 104.692 2.01588C104.617 2.27625 104.579 2.68976 104.579 3.25642V14.651C104.579 15.2024 104.617 15.6159 104.692 15.8916C104.782 16.1673 104.948 16.351 105.189 16.4429C105.43 16.5348 105.791 16.596 106.273 16.6267V17.0862C105.867 17.0555 105.354 17.0402 104.737 17.0402C104.12 17.0248 103.495 17.0173 102.862 17.0173C102.124 17.0173 101.439 17.0248 100.806 17.0402C100.189 17.0402 99.6844 17.0555 99.293 17.0862V16.6267C99.7748 16.596 100.136 16.5348 100.377 16.4429C100.618 16.351 100.776 16.1673 100.852 15.8916C100.942 15.6159 100.987 15.2024 100.987 14.651V3.25642C100.987 2.68976 100.942 2.27625 100.852 2.01588C100.776 1.74021 100.611 1.55642 100.355 1.46453C100.114 1.35733 99.7598 1.29606 99.293 1.28075V0.821289C99.6844 0.836605 100.189 0.85192 100.806 0.867235C101.439 0.88255 102.124 0.890208 102.862 0.890208C103.495 0.890208 104.12 0.88255 104.737 0.867235C105.354 0.85192 105.867 0.836605 106.273 0.821289Z" fill="white"/>
<path d="M97.8766 0.821289V1.28075C97.3947 1.34201 97.0332 1.47219 96.7923 1.67129C96.5513 1.85507 96.3857 2.15372 96.2953 2.56723C96.22 2.98075 96.1824 3.56273 96.1824 4.31318V17.1321C96.0017 17.1167 95.8134 17.1091 95.6177 17.1091C95.4369 17.1091 95.2412 17.1167 95.0303 17.1321L85.2265 4.49696V13.3186C85.2265 14.1609 85.2716 14.8119 85.362 15.2713C85.4524 15.7154 85.6481 16.037 85.9493 16.2362C86.2656 16.42 86.755 16.5501 87.4177 16.6267V17.0862C87.1314 17.0555 86.755 17.0402 86.2882 17.0402C85.8213 17.0248 85.3846 17.0173 84.978 17.0173C84.6316 17.0173 84.2777 17.0248 83.9163 17.0402C83.5548 17.0402 83.2536 17.0555 83.0127 17.0862V16.6267C83.4945 16.5501 83.856 16.42 84.097 16.2362C84.3379 16.0524 84.496 15.7537 84.5714 15.3402C84.6617 14.9113 84.7069 14.3294 84.7069 13.5943V3.25642C84.7069 2.68976 84.6617 2.27625 84.5714 2.01588C84.496 1.74021 84.3305 1.55642 84.0744 1.46453C83.8335 1.35733 83.4795 1.29606 83.0127 1.28075V0.821289C83.2536 0.836605 83.5548 0.85192 83.9163 0.867235C84.2777 0.88255 84.6316 0.890208 84.978 0.890208C85.3394 0.890208 85.6857 0.88255 86.0171 0.867235C86.3484 0.85192 86.6496 0.836605 86.9207 0.821289L95.6628 11.7794V4.58886C95.6628 3.74652 95.6177 3.10327 95.5273 2.65913C95.4369 2.19967 95.2336 1.87038 94.9174 1.67129C94.6162 1.47219 94.1342 1.34201 93.4716 1.28075V0.821289C93.7577 0.836605 94.1343 0.85192 94.6011 0.867235C95.0679 0.88255 95.5047 0.890208 95.9113 0.890208C96.2728 0.890208 96.6266 0.88255 96.973 0.867235C97.3345 0.85192 97.6356 0.836605 97.8766 0.821289Z" fill="white"/>
<path d="M73.4537 0.5C75.0501 0.5 76.4431 0.82928 77.6328 1.48784C78.8376 2.14639 79.7713 3.09595 80.4339 4.33649C81.0966 5.56172 81.4278 7.05496 81.4278 8.81622C81.4278 10.5315 81.089 12.0324 80.4113 13.3189C79.7336 14.6054 78.7849 15.6085 77.565 16.3284C76.3603 17.0482 74.9824 17.4081 73.4311 17.4081C71.8348 17.4081 70.4343 17.0788 69.2295 16.4203C68.0398 15.7618 67.1136 14.8122 66.451 13.5716C65.7884 12.3311 65.457 10.8378 65.457 9.09189C65.457 7.37658 65.7959 5.87568 66.4736 4.58919C67.1664 3.3027 68.1076 2.29955 69.2973 1.57973C70.5021 0.859911 71.8876 0.5 73.4537 0.5ZM73.3634 0.913514C72.5201 0.913514 71.7821 1.25811 71.1496 1.9473C70.5322 2.63649 70.0503 3.58604 69.7039 4.79595C69.3726 6.00585 69.2069 7.4072 69.2069 9C69.2069 10.6234 69.3952 12.0401 69.7716 13.25C70.1632 14.4446 70.6828 15.3712 71.3303 16.0297C71.993 16.673 72.7234 16.9946 73.5215 16.9946C74.3649 16.9946 75.0953 16.65 75.7127 15.9608C76.3452 15.2716 76.8271 14.322 77.1584 13.1122C77.5048 11.8869 77.678 10.4856 77.678 8.90811C77.678 7.26937 77.4822 5.8527 77.0906 4.65811C76.7142 3.46351 76.1946 2.54459 75.532 1.90135C74.8844 1.24279 74.1616 0.913514 73.3634 0.913514Z" fill="white"/>
<path d="M63.8987 0.821289C63.8385 1.60237 63.7932 2.35282 63.7631 3.07264C63.7481 3.79246 63.7406 4.34382 63.7406 4.72669C63.7406 5.06363 63.7481 5.38525 63.7631 5.69156C63.7782 5.99787 63.7932 6.25822 63.8083 6.47264H63.2888C63.0477 5.18615 62.739 4.16768 62.3626 3.41723C62.0012 2.66679 61.5644 2.13841 61.0524 1.8321C60.5403 1.51048 59.9379 1.34967 59.2452 1.34967H58.7257V14.4673C58.7257 15.0798 58.7859 15.5393 58.9064 15.8456C59.0419 16.1519 59.2828 16.3586 59.6293 16.4659C59.9756 16.5578 60.4801 16.6113 61.1428 16.6267V17.0862C60.6758 17.0708 60.0509 17.0555 59.2678 17.0402C58.4998 17.0248 57.694 17.0173 56.8507 17.0173C56.0224 17.0173 55.2393 17.0248 54.5014 17.0402C53.7634 17.0555 53.1687 17.0708 52.7169 17.0862V16.6267C53.3945 16.6113 53.9065 16.5578 54.2529 16.4659C54.5992 16.3586 54.8327 16.1519 54.9532 15.8456C55.0736 15.5393 55.1339 15.0798 55.1339 14.4673V1.34967H54.637C53.9443 1.34967 53.3418 1.51048 52.8298 1.8321C52.3178 2.13841 51.881 2.66679 51.5196 3.41723C51.1582 4.15237 50.8419 5.17084 50.5709 6.47264H50.0513C50.0813 6.25822 50.0965 5.99787 50.0965 5.69156C50.1115 5.38525 50.1191 5.06363 50.1191 4.72669C50.1191 4.34382 50.1039 3.79246 50.0739 3.07264C50.0588 2.35282 50.0211 1.60237 49.9609 0.821289C50.6536 0.836605 51.4067 0.85192 52.2199 0.867235C53.0481 0.88255 53.8764 0.890208 54.7047 0.890208C55.533 0.890208 56.2784 0.890208 56.9411 0.890208C57.6188 0.890208 58.3642 0.890208 59.1775 0.890208C60.0057 0.890208 60.8341 0.88255 61.6623 0.867235C62.4906 0.85192 63.236 0.836605 63.8987 0.821289Z" fill="white"/>
<path d="M23.9393 17.0862V16.6267C24.4212 16.596 24.7827 16.5348 25.0236 16.4429C25.2646 16.351 25.4227 16.1673 25.498 15.8916C25.5883 15.6159 25.6335 15.2024 25.6335 14.651V3.25642C25.6335 2.68976 25.5883 2.27625 25.498 2.01588C25.4227 1.74021 25.2571 1.55642 25.001 1.46453C24.7601 1.35733 24.4062 1.29606 23.9393 1.28075V0.821289C24.3459 0.836605 24.873 0.85192 25.5206 0.867235C26.1832 0.88255 26.8383 0.890208 27.4858 0.890208C28.1787 0.890208 28.8262 0.88255 29.4285 0.867235C30.046 0.85192 30.543 0.836605 30.9195 0.821289V1.28075C30.4376 1.29606 30.0686 1.35733 29.8126 1.46453C29.5716 1.55642 29.4135 1.74021 29.3382 2.01588C29.263 2.27625 29.2252 2.68976 29.2252 3.25642V14.651C29.2252 15.2024 29.263 15.6159 29.3382 15.8916C29.4285 16.1673 29.5942 16.351 29.8352 16.4429C30.0762 16.5348 30.4376 16.596 30.9195 16.6267V17.0862C30.543 17.0555 30.046 17.0402 29.4285 17.0402C28.8262 17.0248 28.1787 17.0173 27.4858 17.0173C26.8383 17.0173 26.1832 17.0248 25.5206 17.0402C24.873 17.0402 24.3459 17.0555 23.9393 17.0862ZM14.3613 17.0862V16.6267C14.8433 16.596 15.2047 16.5348 15.4456 16.4429C15.6867 16.351 15.8448 16.1673 15.92 15.8916C16.0104 15.6159 16.0555 15.2024 16.0555 14.651V3.25642C16.0555 2.68976 16.0104 2.27625 15.92 2.01588C15.8448 1.74021 15.6791 1.55642 15.423 1.46453C15.1821 1.35733 14.8283 1.29606 14.3613 1.28075V0.821289C14.7529 0.836605 15.2575 0.85192 15.8748 0.867235C16.5073 0.88255 17.1926 0.890208 17.9305 0.890208C18.563 0.890208 19.188 0.88255 19.8054 0.867235C20.4229 0.85192 20.9349 0.836605 21.3415 0.821289V1.28075C20.8597 1.29606 20.4907 1.35733 20.2346 1.46453C19.9937 1.55642 19.8356 1.74021 19.7602 2.01588C19.685 2.27625 19.6473 2.68976 19.6473 3.25642V14.651C19.6473 15.2024 19.685 15.6159 19.7602 15.8916C19.8506 16.1673 20.0163 16.351 20.2572 16.4429C20.4982 16.5348 20.8597 16.596 21.3415 16.6267V17.0862C20.9349 17.0555 20.4229 17.0402 19.8054 17.0402C19.188 17.0248 18.563 17.0173 17.9305 17.0173C17.1926 17.0173 16.5073 17.0248 15.8748 17.0402C15.2575 17.0402 14.7529 17.0555 14.3613 17.0862ZM18.179 9.13751V8.67805H27.1018V9.13751H18.179Z" fill="white"/>
<path d="M0 0.821289C0.376492 0.836605 0.880991 0.85192 1.5135 0.867235C2.16106 0.88255 2.8011 0.890208 3.43361 0.890208C4.15647 0.890208 4.85675 0.88255 5.53444 0.867235C6.21212 0.85192 6.69404 0.844263 6.98017 0.844263C9.07346 0.844263 10.6397 1.26543 11.6788 2.10778C12.7179 2.95011 13.2375 4.0375 13.2375 5.36994C13.2375 5.92129 13.1321 6.50327 12.9212 7.11588C12.7103 7.71318 12.3489 8.27219 11.8369 8.79291C11.3399 9.29832 10.6547 9.71183 9.78127 10.0335C8.90781 10.3551 7.80844 10.5159 6.4832 10.5159H4.17906V10.0564H6.2573C7.14583 10.0564 7.81598 9.84967 8.26777 9.43615C8.73462 9.02264 9.05087 8.47895 9.21653 7.80507C9.39725 7.1312 9.4876 6.40372 9.4876 5.62264C9.4876 4.16768 9.27676 3.0803 8.8551 2.36048C8.43343 1.64066 7.71056 1.28075 6.6865 1.28075C6.09917 1.28075 5.71515 1.41093 5.53444 1.67129C5.36878 1.93165 5.28595 2.46003 5.28595 3.25642V14.5132C5.28595 15.1105 5.34619 15.5546 5.46667 15.8456C5.58715 16.1366 5.82057 16.3281 6.16694 16.42C6.51332 16.5119 7.02534 16.5654 7.70303 16.5808V17.0862C7.23618 17.0708 6.63379 17.0555 5.89587 17.0402C5.15795 17.0248 4.38237 17.0173 3.56915 17.0173C2.92158 17.0173 2.28908 17.0248 1.67163 17.0402C1.05418 17.0555 0.49697 17.0708 0 17.0862V16.6267C0.48191 16.596 0.843342 16.5348 1.0843 16.4429C1.32525 16.351 1.48338 16.1673 1.55868 15.8916C1.64904 15.6159 1.69421 15.2024 1.69421 14.651V3.25642C1.69421 2.68976 1.64904 2.27625 1.55868 2.01588C1.48338 1.74021 1.31773 1.55642 1.06171 1.46453C0.820752 1.35733 0.46685 1.29606 0 1.28075V0.821289Z" fill="white"/>
<mask id="mask0_176_67" style="mask-type:luminance" maskUnits="userSpaceOnUse" x="32" y="0" width="17" height="18">
<path d="M48.6225 0.661133H32.2451V17.3165H48.6225V0.661133Z" fill="white"/>
</mask>
<g mask="url(#mask0_176_67)">
<path d="M33.0332 12.1953C34.4888 15.3529 37.5503 16.6284 38.8991 16.8713L41.6598 12.1953H33.0332Z" fill="#C8E600"/>
<path d="M33.8336 4.22363C31.7647 7.16634 32.1514 10.2 32.6034 11.3489H38.1129L33.8336 4.22363Z" fill="#C8E600"/>
<path d="M39.6895 17.2446C42.7144 17.7239 45.3288 15.6969 46.258 14.6233L43.6661 9.74609L39.6895 17.2446Z" fill="#C8E600"/>
<path d="M47.8344 5.42619C46.4816 2.20949 43.5708 0.909194 42.2845 0.661133L39.6895 5.42619H47.8344Z" fill="#C8E600"/>
<path d="M47.0033 13.7543C49.1588 10.768 48.7069 7.46286 48.2115 6.18359H42.7549L47.0033 13.7543Z" fill="#C8E600"/>
<path d="M37.2038 8.23177L41.1778 0.703063C37.7202 0.345073 35.3582 2.36737 34.6094 3.42328L37.2038 8.23177Z" fill="#C8E600"/>
</g>
</g>
<defs>
<clipPath id="clip0_176_67">
<rect width="123" height="17" fill="white" transform="translate(0 0.5)"/>
</clipPath>
</defs>
</svg>
