<svg width="1334" height="116" viewBox="0 0 1334 116" fill="none" xmlns="http://www.w3.org/2000/svg">
<path d="M4.444 23.872C6.37733 23.9493 8.968 24.0267 12.216 24.104C15.5413 24.1813 18.828 24.22 22.076 24.22C25.788 24.22 29.384 24.1813 32.864 24.104C36.344 24.0267 38.8187 23.988 40.288 23.988C51.0373 23.988 59.08 26.1147 64.416 30.368C69.752 34.6213 72.42 40.112 72.42 46.84C72.42 49.624 71.8787 52.5627 70.796 55.656C69.7133 58.672 67.8573 61.4947 65.228 64.124C62.676 66.676 59.1573 68.764 54.672 70.388C50.1867 72.012 44.5413 72.824 37.736 72.824H25.904V70.504H36.576C41.1387 70.504 44.58 69.46 46.9 67.372C49.2973 65.284 50.9213 62.5387 51.772 59.136C52.7 55.7333 53.164 52.06 53.164 48.116C53.164 40.7693 52.0813 35.2787 49.916 31.644C47.7507 28.0093 44.0387 26.192 38.78 26.192C35.764 26.192 33.792 26.8493 32.864 28.164C32.0133 29.4787 31.588 32.1467 31.588 36.168V93.008C31.588 96.024 31.8973 98.2667 32.516 99.736C33.1347 101.205 34.3333 102.172 36.112 102.636C37.8907 103.1 40.52 103.371 44 103.448V106C41.6027 105.923 38.5093 105.845 34.72 105.768C30.9307 105.691 26.948 105.652 22.772 105.652C19.4467 105.652 16.1987 105.691 13.028 105.768C9.85733 105.845 6.996 105.923 4.444 106V103.68C6.91867 103.525 8.77467 103.216 10.012 102.752C11.2493 102.288 12.0613 101.36 12.448 99.968C12.912 98.576 13.144 96.488 13.144 93.704V36.168C13.144 33.3067 12.912 31.2187 12.448 29.904C12.0613 28.512 11.2107 27.584 9.896 27.12C8.65867 26.5787 6.84133 26.2693 4.444 26.192V23.872ZM227.134 106V103.68C229.609 103.525 231.465 103.216 232.702 102.752C233.939 102.288 234.751 101.36 235.138 99.968C235.602 98.576 235.834 96.488 235.834 93.704V36.168C235.834 33.3067 235.602 31.2187 235.138 29.904C234.751 28.512 233.901 27.584 232.586 27.12C231.349 26.5787 229.531 26.2693 227.134 26.192V23.872C229.222 23.9493 231.929 24.0267 235.254 24.104C238.657 24.1813 242.021 24.22 245.346 24.22C248.903 24.22 252.229 24.1813 255.322 24.104C258.493 24.0267 261.045 23.9493 262.978 23.872V26.192C260.503 26.2693 258.609 26.5787 257.294 27.12C256.057 27.584 255.245 28.512 254.858 29.904C254.471 31.2187 254.278 33.3067 254.278 36.168V93.704C254.278 96.488 254.471 98.576 254.858 99.968C255.322 101.36 256.173 102.288 257.41 102.752C258.647 103.216 260.503 103.525 262.978 103.68V106C261.045 105.845 258.493 105.768 255.322 105.768C252.229 105.691 248.903 105.652 245.346 105.652C242.021 105.652 238.657 105.691 235.254 105.768C231.929 105.768 229.222 105.845 227.134 106ZM177.95 106V103.68C180.425 103.525 182.281 103.216 183.518 102.752C184.755 102.288 185.567 101.36 185.954 99.968C186.418 98.576 186.65 96.488 186.65 93.704V36.168C186.65 33.3067 186.418 31.2187 185.954 29.904C185.567 28.512 184.717 27.584 183.402 27.12C182.165 26.5787 180.347 26.2693 177.95 26.192V23.872C179.961 23.9493 182.551 24.0267 185.722 24.104C188.97 24.1813 192.489 24.22 196.278 24.22C199.526 24.22 202.735 24.1813 205.906 24.104C209.077 24.0267 211.706 23.9493 213.794 23.872V26.192C211.319 26.2693 209.425 26.5787 208.11 27.12C206.873 27.584 206.061 28.512 205.674 29.904C205.287 31.2187 205.094 33.3067 205.094 36.168V93.704C205.094 96.488 205.287 98.576 205.674 99.968C206.138 101.36 206.989 102.288 208.226 102.752C209.463 103.216 211.319 103.525 213.794 103.68V106C211.706 105.845 209.077 105.768 205.906 105.768C202.735 105.691 199.526 105.652 196.278 105.652C192.489 105.652 188.97 105.691 185.722 105.768C182.551 105.768 179.961 105.845 177.95 106ZM197.554 65.864V63.544H243.374V65.864H197.554ZM631.854 23.872C631.544 27.816 631.312 31.6053 631.158 35.24C631.08 38.8747 631.042 41.6587 631.042 43.592C631.042 45.2933 631.08 46.9173 631.158 48.464C631.235 50.0107 631.312 51.3253 631.39 52.408H628.722C627.484 45.912 625.899 40.7693 623.966 36.98C622.11 33.1907 619.867 30.5227 617.238 28.976C614.608 27.352 611.515 26.54 607.958 26.54H605.29V92.776C605.29 95.8693 605.599 98.1893 606.218 99.736C606.914 101.283 608.151 102.327 609.93 102.868C611.708 103.332 614.299 103.603 617.702 103.68V106C615.304 105.923 612.095 105.845 608.074 105.768C604.13 105.691 599.992 105.652 595.662 105.652C591.408 105.652 587.387 105.691 583.598 105.768C579.808 105.845 576.754 105.923 574.434 106V103.68C577.914 103.603 580.543 103.332 582.322 102.868C584.1 102.327 585.299 101.283 585.918 99.736C586.536 98.1893 586.846 95.8693 586.846 92.776V26.54H584.294C580.736 26.54 577.643 27.352 575.014 28.976C572.384 30.5227 570.142 33.1907 568.286 36.98C566.43 40.692 564.806 45.8347 563.414 52.408H560.746C560.9 51.3253 560.978 50.0107 560.978 48.464C561.055 46.9173 561.094 45.2933 561.094 43.592C561.094 41.6587 561.016 38.8747 560.862 35.24C560.784 31.6053 560.591 27.816 560.282 23.872C563.839 23.9493 567.706 24.0267 571.882 24.104C576.135 24.1813 580.388 24.22 584.642 24.22C588.895 24.22 592.723 24.22 596.126 24.22C599.606 24.22 603.434 24.22 607.61 24.22C611.863 24.22 616.116 24.1813 620.37 24.104C624.623 24.0267 628.451 23.9493 631.854 23.872ZM780.678 22.248C788.875 22.248 796.029 23.9107 802.138 27.236C808.325 30.5613 813.119 35.356 816.522 41.62C819.925 47.8067 821.626 55.3467 821.626 64.24C821.626 72.9013 819.886 80.48 816.406 86.976C812.926 93.472 808.054 98.5373 801.79 102.172C795.603 105.807 788.527 107.624 780.562 107.624C772.365 107.624 765.173 105.961 758.986 102.636C752.877 99.3107 748.121 94.516 744.718 88.252C741.315 81.988 739.614 74.448 739.614 65.632C739.614 56.9707 741.354 49.392 744.834 42.896C748.391 36.4 753.225 31.3347 759.334 27.7C765.521 24.0653 772.635 22.248 780.678 22.248ZM780.214 24.336C775.883 24.336 772.094 26.076 768.846 29.556C765.675 33.036 763.201 37.8307 761.422 43.94C759.721 50.0493 758.87 57.1253 758.87 65.168C758.87 73.3653 759.837 80.5187 761.77 86.628C763.781 92.66 766.449 97.3387 769.774 100.664C773.177 103.912 776.927 105.536 781.026 105.536C785.357 105.536 789.107 103.796 792.278 100.316C795.526 96.836 798.001 92.0413 799.702 85.932C801.481 79.7453 802.37 72.6693 802.37 64.704C802.37 56.4293 801.365 49.276 799.354 43.244C797.421 37.212 794.753 32.572 791.35 29.324C788.025 25.9987 784.313 24.336 780.214 24.336ZM1005.85 23.872V26.192C1003.38 26.5013 1001.52 27.1587 1000.28 28.164C999.047 29.092 998.196 30.6 997.732 32.688C997.345 34.776 997.152 37.7147 997.152 41.504V106.232C996.224 106.155 995.257 106.116 994.252 106.116C993.324 106.116 992.319 106.155 991.236 106.232L940.892 42.432V86.976C940.892 91.2293 941.124 94.516 941.588 96.836C942.052 99.0787 943.057 100.703 944.604 101.708C946.228 102.636 948.741 103.293 952.144 103.68V106C950.675 105.845 948.741 105.768 946.344 105.768C943.947 105.691 941.704 105.652 939.616 105.652C937.837 105.652 936.02 105.691 934.164 105.768C932.308 105.768 930.761 105.845 929.524 106V103.68C931.999 103.293 933.855 102.636 935.092 101.708C936.329 100.78 937.141 99.272 937.528 97.184C937.992 95.0187 938.224 92.08 938.224 88.368V36.168C938.224 33.3067 937.992 31.2187 937.528 29.904C937.141 28.512 936.291 27.584 934.976 27.12C933.739 26.5787 931.921 26.2693 929.524 26.192V23.872C930.761 23.9493 932.308 24.0267 934.164 24.104C936.02 24.1813 937.837 24.22 939.616 24.22C941.472 24.22 943.251 24.1813 944.952 24.104C946.653 24.0267 948.2 23.9493 949.592 23.872L994.484 79.204V42.896C994.484 38.6427 994.252 35.3947 993.788 33.152C993.324 30.832 992.28 29.1693 990.656 28.164C989.109 27.1587 986.635 26.5013 983.232 26.192V23.872C984.701 23.9493 986.635 24.0267 989.032 24.104C991.429 24.1813 993.672 24.22 995.76 24.22C997.616 24.22 999.433 24.1813 1001.21 24.104C1003.07 24.0267 1004.61 23.9493 1005.85 23.872ZM1148.73 23.872V26.192C1146.25 26.2693 1144.36 26.5787 1143.04 27.12C1141.81 27.584 1140.99 28.512 1140.61 29.904C1140.22 31.2187 1140.03 33.3067 1140.03 36.168V93.704C1140.03 96.488 1140.22 98.576 1140.61 99.968C1141.07 101.36 1141.92 102.288 1143.16 102.752C1144.4 103.216 1146.25 103.525 1148.73 103.68V106C1146.64 105.845 1144.01 105.768 1140.84 105.768C1137.67 105.691 1134.46 105.652 1131.21 105.652C1127.42 105.652 1123.9 105.691 1120.65 105.768C1117.48 105.768 1114.89 105.845 1112.88 106V103.68C1115.36 103.525 1117.21 103.216 1118.45 102.752C1119.69 102.288 1120.5 101.36 1120.89 99.968C1121.35 98.576 1121.58 96.488 1121.58 93.704V36.168C1121.58 33.3067 1121.35 31.2187 1120.89 29.904C1120.5 28.512 1119.65 27.584 1118.33 27.12C1117.1 26.5787 1115.28 26.2693 1112.88 26.192V23.872C1114.89 23.9493 1117.48 24.0267 1120.65 24.104C1123.9 24.1813 1127.42 24.22 1131.21 24.22C1134.46 24.22 1137.67 24.1813 1140.84 24.104C1144.01 24.0267 1146.64 23.9493 1148.73 23.872ZM1287 23.756V26.192C1283.52 26.192 1281.27 26.54 1280.27 27.236C1279.34 27.8547 1279.42 28.976 1280.5 30.6L1326.44 97.764C1327.98 99.9293 1329.22 101.399 1330.15 102.172C1331.08 102.945 1332.31 103.409 1333.86 103.564V106C1332.31 105.923 1330.07 105.845 1327.13 105.768C1324.19 105.613 1321.14 105.536 1317.97 105.536C1314.49 105.536 1310.93 105.613 1307.3 105.768C1303.74 105.845 1301.07 105.923 1299.29 106V103.564C1302.85 103.564 1305.13 103.332 1306.14 102.868C1307.22 102.327 1307.22 101.244 1306.14 99.62L1260.08 31.992C1258.61 29.7493 1257.42 28.2413 1256.49 27.468C1255.56 26.6947 1254.28 26.2693 1252.66 26.192V23.756C1254.28 23.8333 1256.64 23.9493 1259.74 24.104C1262.91 24.1813 1266.08 24.22 1269.25 24.22C1272.73 24.22 1276.05 24.1813 1279.22 24.104C1282.47 23.9493 1285.06 23.8333 1287 23.756ZM1288.04 64.704C1288.04 64.704 1288.12 64.9747 1288.27 65.516C1288.43 65.98 1288.58 66.4827 1288.74 67.024C1288.89 67.488 1288.97 67.72 1288.97 67.72L1277.37 83.612C1274.27 87.788 1272.53 91.3453 1272.15 94.284C1271.76 97.1453 1272.42 99.388 1274.12 101.012C1275.9 102.559 1278.49 103.448 1281.89 103.68V106C1280.81 105.923 1279.42 105.884 1277.72 105.884C1276.09 105.807 1274.35 105.768 1272.5 105.768C1270.72 105.691 1269.02 105.652 1267.39 105.652C1265.85 105.652 1264.57 105.652 1263.56 105.652C1261.4 105.652 1259.39 105.691 1257.53 105.768C1255.68 105.768 1254.13 105.845 1252.89 106V103.68C1255.6 102.752 1258.34 101.128 1261.13 98.808C1263.91 96.4107 1266.77 93.3173 1269.71 89.528L1288.04 64.704ZM1328.64 23.872V26.192C1326.09 26.888 1323.54 28.3573 1320.98 30.6C1318.51 32.8427 1316.19 35.4333 1314.02 38.372L1295.23 63.428C1295.23 63.428 1295.08 62.9253 1294.77 61.92C1294.54 60.9147 1294.42 60.412 1294.42 60.412L1306.37 44.288C1309.31 40.576 1311.05 37.4053 1311.59 34.776C1312.21 32.1467 1311.78 30.0973 1310.31 28.628C1308.84 27.1587 1306.52 26.3467 1303.35 26.192V23.872C1304.82 23.9493 1306.45 24.0267 1308.22 24.104C1310 24.104 1311.74 24.1427 1313.44 24.22C1315.22 24.22 1316.73 24.22 1317.97 24.22C1320.21 24.22 1322.26 24.1813 1324.12 24.104C1325.97 24.0267 1327.48 23.9493 1328.64 23.872Z" fill="black"/>
<path d="M411.689 22.248C419.887 22.248 427.04 23.9107 433.149 27.236C439.336 30.5613 444.131 35.356 447.533 41.62C450.936 47.8067 452.637 55.3467 452.637 64.24C452.637 72.9013 450.897 80.48 447.417 86.976C443.937 93.472 439.065 98.5373 432.801 102.172C426.615 105.807 419.539 107.624 411.573 107.624C403.376 107.624 396.184 105.961 389.997 102.636C383.888 99.3107 379.132 94.516 375.729 88.252C372.327 81.988 370.625 74.448 370.625 65.632C370.625 56.9707 372.365 49.392 375.845 42.896C379.403 36.4 384.236 31.3347 390.345 27.7C396.532 24.0653 403.647 22.248 411.689 22.248ZM411.225 24.336C406.895 24.336 403.105 26.076 399.857 29.556C396.687 33.036 394.212 37.8307 392.433 43.94C390.732 50.0493 389.881 57.1253 389.881 65.168C389.881 73.3653 390.848 80.5187 392.781 86.628C394.792 92.66 397.46 97.3387 400.785 100.664C404.188 103.912 407.939 105.536 412.037 105.536C416.368 105.536 420.119 103.796 423.289 100.316C426.537 96.836 429.012 92.0413 430.713 85.932C432.492 79.7453 433.381 72.6693 433.381 64.704C433.381 56.4293 432.376 49.276 430.365 43.244C428.432 37.212 425.764 32.572 422.361 29.324C419.036 25.9987 415.324 24.336 411.225 24.336Z" fill="#C8E600"/>
<g clip-path="url(#clip0_219_2)">
<path d="M373.043 81.1711C380.509 97.0963 396.211 103.529 403.13 104.754L417.289 81.1711H373.043Z" fill="black"/>
<path d="M377.147 40.9679C366.536 55.8092 368.519 71.1091 370.838 76.9037H399.096L377.147 40.9679Z" fill="black"/>
<path d="M407.182 106.636C422.696 109.054 436.106 98.8303 440.871 93.4163L427.578 68.8182L407.182 106.636Z" fill="black"/>
<path d="M448.957 47.0321C442.018 30.809 427.089 24.2511 420.492 23L407.182 47.0321H448.957Z" fill="black"/>
<path d="M444.693 89.0322C455.749 73.9712 453.431 57.3022 450.89 50.8503H422.903L444.693 89.0322Z" fill="black"/>
<path d="M394.435 61.1818L414.818 23.2115C397.084 21.406 384.969 31.6053 381.128 36.9306L394.435 61.1818Z" fill="black"/>
</g>
<defs>
<clipPath id="clip0_219_2">
<rect width="84" height="84" fill="white" transform="translate(369 23)"/>
</clipPath>
</defs>
</svg>
